<?xml version="1.0" standalone="no"?>
<!DOCTYPE svg PUBLIC "-//W3C//DTD SVG 20010904//EN"
 "http://www.w3.org/TR/2001/REC-SVG-20010904/DTD/svg10.dtd">
<svg class="notes" version="1.0" xmlns="http://www.w3.org/2000/svg"
 width="512.000000pt" height="512.000000pt" viewBox="0 0 512.000000 512.000000"
 preserveAspectRatio="xMidYMid meet">

<g transform="translate(0.000000,512.000000) scale(0.100000,-0.100000)"
fill="white" stroke="none">
<path d="M1430 4519 c-14 -5 -149 -133 -300 -285 l-275 -274 -55 56 c-68 69
-100 86 -160 86 -83 0 -141 -48 -156 -130 -13 -67 8 -99 154 -245 113 -113
146 -140 178 -147 87 -20 89 -18 462 353 189 188 350 355 359 371 21 40 13
124 -15 163 -39 55 -125 78 -192 52z"/>
<path d="M2280 4088 c-59 -30 -90 -77 -90 -137 0 -60 28 -111 76 -138 l39 -23
1111 0 1111 0 33 23 c47 31 71 67 77 115 7 55 -26 123 -75 154 l-37 23 -1100
3 -1100 2 -45 -22z"/>
<path d="M1430 3025 c-20 -9 -149 -129 -307 -288 l-273 -272 -62 62 c-75 72
-94 83 -148 83 -107 0 -181 -100 -150 -203 9 -32 40 -71 134 -165 154 -157
201 -182 283 -152 32 12 707 680 729 722 8 15 14 47 14 71 0 109 -120 186
-220 142z"/>
<path d="M2272 2593 c-49 -24 -75 -68 -80 -132 -4 -66 20 -111 78 -145 35 -21
43 -21 1145 -21 l1110 0 37 23 c49 31 82 99 75 154 -6 48 -30 84 -77 116 l-33
22 -1111 0 c-1003 0 -1114 -2 -1144 -17z"/>
<path d="M1451 1540 c-26 -6 -95 -69 -310 -284 -152 -152 -280 -276 -285 -276
-5 0 -39 29 -76 64 -72 69 -108 84 -177 71 -49 -9 -109 -69 -118 -118 -15 -80
-3 -102 138 -245 73 -74 144 -140 159 -148 35 -18 102 -18 142 1 42 20 702
682 715 718 47 125 -59 248 -188 217z"/>
<path d="M2290 1109 c-14 -6 -36 -20 -48 -32 -78 -72 -68 -185 21 -251 28 -21
30 -21 1138 -24 1237 -3 1151 -7 1207 66 39 51 39 133 0 184 -56 73 28 68
-1195 67 -704 0 -1107 -4 -1123 -10z"/>
</g>
</svg>
