<?xml version="1.0" standalone="no"?>
<!DOCTYPE svg PUBLIC "-//W3C//DTD SVG 20010904//EN"
 "http://www.w3.org/TR/2001/REC-SVG-20010904/DTD/svg10.dtd">
<svg version="1.0" xmlns="http://www.w3.org/2000/svg"
 width="512.000000pt" height="512.000000pt" viewBox="0 0 512.000000 512.000000"
 preserveAspectRatio="xMidYMid meet">

<g transform="translate(0.000000,512.000000) scale(0.100000,-0.100000)"
fill="white" stroke="none">
<path d="M904 4580 c-101 -20 -212 -110 -257 -208 l-22 -47 0 -1605 0 -1605
22 -48 c33 -70 113 -149 186 -183 l62 -29 436 -3 c495 -4 497 -3 526 65 13 33
14 43 2 78 -26 75 -25 75 -505 75 l-421 0 -34 23 c-19 12 -42 38 -51 57 -17
33 -18 129 -18 1570 0 1441 1 1537 18 1570 9 19 32 45 51 57 l34 23 903 0 904
0 0 -277 c0 -307 2 -316 60 -345 31 -16 69 -18 323 -18 l287 0 0 -644 0 -643
-521 -519 c-286 -286 -527 -530 -534 -544 -7 -14 -65 -160 -130 -325 -106
-272 -116 -305 -113 -352 5 -57 35 -105 90 -145 26 -18 46 -23 93 -23 53 1 94
15 365 125 l305 125 140 135 c77 74 414 405 749 735 426 420 614 612 627 640
24 51 24 119 0 170 -25 54 -383 408 -433 430 -50 20 -114 19 -163 -4 -22 -10
-87 -67 -145 -125 l-105 -106 -5 608 c-4 521 -7 612 -20 627 -40 49 -708 678
-728 686 -29 11 -1921 10 -1978 -1z m2211 -497 l138 -133 -152 0 -151 0 0 140
c0 117 2 140 14 133 7 -4 75 -68 151 -140z m1105 -1627 l65 -66 -677 -677
-676 -676 -149 153 c-81 84 -150 157 -152 162 -2 6 297 311 665 679 l668 668
95 -89 c53 -49 125 -118 161 -154z m-1490 -1522 c0 -10 -370 -167 -378 -160
-1 2 33 91 75 199 l78 197 113 -113 c61 -61 112 -117 112 -123z"/>
<path d="M1383 3150 c-65 -39 -65 -126 0 -174 28 -21 37 -21 705 -24 372 -2
697 0 721 3 59 9 101 50 101 100 0 51 -24 91 -61 104 -22 8 -246 11 -733 11
-677 0 -702 -1 -733 -20z"/>
<path d="M1383 2510 c-65 -39 -65 -126 0 -174 28 -21 37 -21 705 -24 372 -2
697 0 721 3 59 9 101 50 101 100 0 51 -24 91 -61 104 -22 8 -246 11 -733 11
-677 0 -702 -1 -733 -20z"/>
<path d="M1390 1887 c-14 -7 -33 -29 -43 -50 -16 -31 -17 -42 -7 -72 6 -19 23
-44 37 -55 25 -19 40 -20 475 -20 l449 0 24 24 c50 50 37 142 -26 173 -35 18
-873 18 -909 0z"/>
</g>
</svg>
